<?xml version="1.0" encoding="UTF-8" standalone="no"?>
<!-- Generator: Adobe Illustrator 19.2.1, SVG Export Plug-In . SVG Version: 6.00 Build 0)  -->

<svg
   xmlns:dc="http://purl.org/dc/elements/1.1/"
   xmlns:cc="http://creativecommons.org/ns#"
   xmlns:rdf="http://www.w3.org/1999/02/22-rdf-syntax-ns#"
   xmlns:svg="http://www.w3.org/2000/svg"
   xmlns="http://www.w3.org/2000/svg"
   xmlns:sodipodi="http://sodipodi.sourceforge.net/DTD/sodipodi-0.dtd"
   xmlns:inkscape="http://www.inkscape.org/namespaces/inkscape"
   version="1.1"
   id="Layer_1"
   x="0px"
   y="0px"
   viewBox="0 0 398.04503 95.671234"
   xml:space="preserve"
   inkscape:version="0.91 r13725"
   sodipodi:docname="logo-ehb-small.svg"
   width="398.04504"
   height="95.671234"><metadata
     id="metadata4181"><rdf:RDF><cc:Work
         rdf:about=""><dc:format>image/svg+xml</dc:format><dc:type
           rdf:resource="http://purl.org/dc/dcmitype/StillImage" /><dc:title></dc:title></cc:Work></rdf:RDF></metadata><defs
     id="defs4179" /><sodipodi:namedview
     pagecolor="#ffffff"
     bordercolor="#666666"
     borderopacity="1"
     objecttolerance="10"
     gridtolerance="10"
     guidetolerance="10"
     inkscape:pageopacity="0"
     inkscape:pageshadow="2"
     inkscape:window-width="2560"
     inkscape:window-height="1027"
     id="namedview4177"
     showgrid="false"
     showguides="true"
     inkscape:guide-bbox="true"
     inkscape:zoom="2.9276896"
     inkscape:cx="223.51261"
     inkscape:cy="4.5216693"
     inkscape:window-x="-8"
     inkscape:window-y="-8"
     inkscape:window-maximized="1"
     inkscape:current-layer="Layer_1"
     fit-margin-top="0"
     fit-margin-left="0"
     fit-margin-right="0"
     fit-margin-bottom="0" /><path
     inkscape:connector-curvature="0"
     id="path4139"
     d="m 89.643708,88.571232 c -3,3 -6.5,5.4 -10.2,7.1 l 40.400002,0 c 3.9,-6.7 6.5,-13.9 7.8,-21.3 l -29.400002,0 c -1.7,5.2 -4.5,10.1 -8.6,14.2 m 25.200002,-55.6 1.4,-1.4 c -2.6,-3.9 -5.3,-8 -8.8,-11.4 -25.100002,-25.0999999 -63.100002,-27.7999999 -88.600002,-2.3 -21.0999999,21.1 -24.4999999,53.2 -10.0999999,77.8 l 40.4999999,0 c -3.7,-1.7 -7.1,-4.1 -10.2,-7.1 -13.9,-13.9 -13.9,-36.5 0,-50.5 10.9,-10.9 24.7,-12.2 36.6,-6.3 l -27.7,27.6 20.2,20.2 27,-27 19.700002,-19.6 z"
     style="fill:#e2001a;fill-opacity:1" /><g
     id="g4248"
     transform="translate(-154.65629,-45.322768)"
     style="fill:#ffffff"><path
       d="m 322.80134,84.09409 -15.2,0 c 0.8,-3.6 4,-5.7 7.6,-5.7 3.7,0.1 6.8,2.2 7.6,5.7 m 9.8,6.7 c 0.2,-0.9 0.2,-1.7 0.2,-2.6 0,-10 -7.4,-18.1 -17.7,-18.1 -9.8,0 -17.5,8.2 -17.5,17.8 0,9.7 8,17.5 17.7,17.5 7.3,0 13.1,-4.6 16.1,-10.9 l -10.4,0 c -1.5,1.7 -3.2,2.6 -5.6,2.6 -3.9,0 -7.2,-2.3 -7.8,-6.3 l 25,0 z m 21.2,-11.3 2,0 0,-9.3 c -1.3,0 -4.4,0.1 -4.4,0.1 -3.6,0.1 -7.6,1.4 -10,4.2 -2.7,3.3 -3,6.1 -3,10.2 l 0,19.8 10,0 0,-18.3 c 0,-3.7 0.9,-6.7 5.4,-6.7 m 31.1,8.3 c 0,4.8 -3.5,8.5 -8.4,8.5 -4.7,0 -8.3,-3.8 -8.3,-8.3 0,-4.7 3.4,-8.5 8.3,-8.5 4.9,-0.1 8.4,3.5 8.4,8.3 m 0,16.6 10,0 0,-33.1 -10,0 0,3.5 -0.1,0 c -2,-3.3 -6.1,-4.7 -9.8,-4.7 -10.1,0 -16.8,8 -16.8,17.6 0,9.8 6.5,17.7 16.8,17.7 3.6,0 8,-1.3 9.8,-4.7 l 0.1,0 0,3.7 z m 25.6,-24.1 c 0,-1.5 1.5,-2.2 2.8,-2.2 1.7,0 3.1,0.7 3.1,2.5 l 9.8,0 c -0.7,-7 -6.1,-10.4 -12.8,-10.4 -6.4,0 -13,4 -13,10.9 0,4.7 4,7.2 8,8.6 1.4,0.5 2.9,1 4.3,1.5 1.8,0.7 4.5,1.4 4.5,3.8 0,1.7 -2,2.6 -3.5,2.6 -2,0 -3.5,-1 -3.8,-3 l -9.9,0 c 0.8,7.3 6.6,11 13.6,11 6.8,0 13.6,-3.8 13.6,-11.3 0.1,-11.8 -16.7,-8.8 -16.7,-14 m 63.7,24.2 10,0 0,-19.8 c 0,-4.1 -0.3,-6.9 -3,-10.2 -2.4,-2.9 -6.4,-4.1 -10,-4.2 0,0 -1.3,-0.1 -2.6,-0.1 -1.3,0 -2.6,0.1 -2.6,0.1 -2.7,0.1 -5.7,1.2 -8,2.8 -2.3,-1.6 -5.3,-2.7 -8,-2.8 0,0 -1.3,-0.1 -2.6,-0.1 -1.3,0 -2.6,0.1 -2.6,0.1 -3.6,0.1 -7.6,1.4 -10,4.2 -2.7,3.3 -3,6.1 -3,10.2 l 0,19.8 10,0 0,-18.3 c 0,-3.8 0.8,-6.8 5.4,-6.8 l 0.5,0 c 4.5,0 5.4,3 5.4,6.8 l 0,18.3 0,0 10,0 0,0 0,-18.3 c 0,-3.8 0.8,-6.8 5.4,-6.8 l 0.5,0 c 4.5,0 5.4,3 5.4,6.8 l 0,18.3 z m 44,-3.2 c 2.7,-3.3 3,-6.1 3,-10.2 l 0,-19.8 -10,0 0,18.3 c 0,3.8 -0.8,6.8 -5.4,6.8 l -0.5,0 c -4.5,0 -5.4,-3 -5.4,-6.8 l 0,-18.3 -10,0 0,19.8 c 0,4.1 0.3,6.9 3,10.2 2.4,2.9 6.4,4.1 10,4.2 0,0 1.3,0.1 2.6,0.1 1.3,0 2.6,-0.1 2.6,-0.1 3.8,-0.2 7.8,-1.4 10.1,-4.2 m 23.7,-20.7 9.8,0 c -0.7,-7 -6.1,-10.4 -12.8,-10.4 -6.4,0 -13,4 -13,10.9 0,4.7 4,7.2 8,8.6 1.4,0.5 2.9,1 4.3,1.5 1.8,0.7 4.5,1.4 4.5,3.8 0,1.7 -2,2.6 -3.5,2.6 -2,0 -3.5,-1 -3.8,-3 l -9.9,0 c 0.8,7.3 6.6,11 13.6,11 6.8,0 13.6,-3.8 13.6,-11.3 0,-11.7 -16.8,-8.8 -16.8,-14 0,-1.5 1.5,-2.2 2.8,-2.2 1.8,0 3.1,0.6 3.2,2.5"
       id="path4141"
       inkscape:connector-curvature="0"
       style="fill:#ffffff" /><path
       id="polygon4143"
       d="m 95.9,225.1 0,-6.2 2,0 0,14.3 -2,0 0,-6.2 -5.9,0 0,6.2 -2.1,0 0,-14.3 2.1,0 0,6.2 z"
       transform="translate(212.60134,-99.20591)"
       inkscape:connector-curvature="0"
       style="fill:#ffffff" /><path
       d="m 321.90134,134.29409 c -4.1,0 -7.4,-3.3 -7.4,-7.4 0,-4.1 3.3,-7.4 7.4,-7.4 4.2,0 7.4,3.3 7.4,7.4 0,4.1 -3.3,7.4 -7.4,7.4 m 0,-12.9 c -2.2,0 -4,1.2 -4.8,3.2 -0.3,0.7 -0.5,1.5 -0.5,2.3 0,0.8 0.2,1.6 0.5,2.3 0.9,2 2.6,3.2 4.8,3.2 2.3,0 4.2,-1.3 5,-3.5 0.2,-0.6 0.4,-1.3 0.4,-1.9 0,-3.1 -2.3,-5.6 -5.4,-5.6"
       id="path4145"
       inkscape:connector-curvature="0"
       style="fill:#ffffff" /><path
       d="m 343.00134,133.59409 c -1,0.4 -2,0.7 -3.1,0.7 -4.1,0 -7.3,-3.3 -7.3,-7.4 0,-4.1 3.2,-7.4 7.3,-7.4 2.7,0 5.1,1.5 6.4,3.9 l -2.4,0 c -1.1,-1.2 -2.3,-1.9 -3.9,-1.9 -3,0 -5.3,2.6 -5.3,5.5 0,2.9 2.3,5.4 5.3,5.4 2.3,0 4.1,-1.4 4.9,-3.5 l -6.6,0 0,-1.9 9,0 c -0.1,2.8 -1.7,5.3 -4.3,6.6"
       id="path4147"
       inkscape:connector-curvature="0"
       style="fill:#ffffff" /><path
       id="polygon4149"
       d="m 146,225 0,2 -5.6,0 0,4.3 5.6,0 0,1.9 -7.7,0 0,-14.3 7.7,0 0,1.9 -5.6,0 0,4.2 z"
       transform="translate(212.60134,-99.20591)"
       inkscape:connector-curvature="0"
       style="fill:#ffffff" /><path
       d="m 366.10134,134.29409 c -2.6,0 -4.4,-1.9 -4.4,-4.5 l 2.1,0 c 0,1.4 0.8,2.6 2.3,2.6 1.4,0 2.3,-1 2.3,-2.4 0,-1.5 -1.1,-1.9 -2.3,-2.3 -2.2,-0.8 -4,-1.5 -4,-4.3 0,-2.2 1.8,-3.9 4,-3.9 2.4,0 4.1,1.6 4.1,4 l -2.1,0 c 0,-1.2 -0.8,-2.1 -2,-2.1 -1,0 -1.9,0.9 -1.9,1.9 0,3 6.3,1.2 6.3,6.6 -0.1,2.6 -1.9,4.4 -4.4,4.4"
       id="path4151"
       inkscape:connector-curvature="0"
       style="fill:#ffffff" /><path
       d="m 384.90134,123.39409 c -1.1,-1.2 -2.3,-2 -4,-2 -3,0 -5.3,2.5 -5.3,5.5 0,2.9 2.3,5.5 5.3,5.5 1.5,0 2.9,-0.8 3.9,-1.9 l 2.6,0 c -1.3,2.4 -3.7,3.8 -6.5,3.8 -4.1,0 -7.3,-3.4 -7.3,-7.5 0,-4.1 3.3,-7.3 7.3,-7.3 1.5,0 3.1,0.5 4.4,1.4 1,0.7 1.6,1.5 2.2,2.5 l -2.6,0 z"
       id="path4153"
       inkscape:connector-curvature="0"
       style="fill:#ffffff" /><path
       id="polygon4155"
       d="m 180.6,218.9 0,6.2 5.8,0 0,-6.2 2.1,0 0,14.3 -2.1,0 0,-6.2 -5.8,0 0,6.2 -2.1,0 0,-14.3 z"
       transform="translate(212.60134,-99.20591)"
       inkscape:connector-curvature="0"
       style="fill:#ffffff" /><path
       d="m 412.50134,134.29409 c -4.1,0 -7.4,-3.3 -7.4,-7.4 0,-4.1 3.3,-7.4 7.4,-7.4 4.2,0 7.4,3.3 7.4,7.4 0,4.1 -3.3,7.4 -7.4,7.4 m 0,-12.9 c -2.2,0 -4,1.2 -4.8,3.2 -0.3,0.7 -0.5,1.5 -0.5,2.3 0,0.8 0.2,1.6 0.5,2.3 0.9,2 2.6,3.2 4.8,3.2 2.3,0 4.2,-1.3 5,-3.5 0.2,-0.6 0.4,-1.3 0.4,-1.9 -0.1,-3.1 -2.3,-5.6 -5.4,-5.6"
       id="path4157"
       inkscape:connector-curvature="0"
       style="fill:#ffffff" /><path
       d="m 430.60134,134.29409 c -4.1,0 -7.4,-3.3 -7.4,-7.4 0,-4.1 3.3,-7.4 7.4,-7.4 4.2,0 7.4,3.3 7.4,7.4 0,4.1 -3.4,7.4 -7.4,7.4 m 0,-12.9 c -2.2,0 -4,1.2 -4.8,3.2 -0.3,0.7 -0.5,1.5 -0.5,2.3 0,0.8 0.2,1.6 0.5,2.3 0.9,2 2.6,3.2 4.8,3.2 2.3,0 4.2,-1.3 5,-3.5 0.2,-0.6 0.4,-1.3 0.4,-1.9 -0.1,-3.1 -2.3,-5.6 -5.4,-5.6"
       id="path4159"
       inkscape:connector-curvature="0"
       style="fill:#ffffff" /><path
       id="polygon4161"
       d="m 229.4,233.2 0,-14.3 2.1,0 0,12.4 4.9,0 0,1.9 z"
       transform="translate(212.60134,-99.20591)"
       inkscape:connector-curvature="0"
       style="fill:#ffffff" /><path
       d="m 475.30134,131.59409 c -0.8,1.8 -2.5,2.4 -4.4,2.4 l -4.3,0 0,-14.3 3.7,0 c 1.8,0 3.5,0.6 4.2,2.4 0.2,0.5 0.3,1 0.3,1.6 0,1.2 -0.4,1.9 -1.3,2.7 1.3,0.8 2.1,1.9 2.1,3.5 0,0.5 -0.1,1.1 -0.3,1.7 m -5,-10 -1.6,0 0,4 1.7,0 c 1.3,0 2.3,-0.6 2.3,-2 0,-1.5 -1.1,-2 -2.4,-2 m 2.8,6.8 c -0.6,-0.8 -1.4,-0.9 -2.3,-0.9 l -2,0 0,4.5 2.3,0 c 1.3,0 2.6,-0.8 2.6,-2.2 -0.1,-0.4 -0.3,-1 -0.6,-1.4"
       id="path4163"
       inkscape:connector-curvature="0"
       style="fill:#ffffff" /><path
       d="m 486.40134,128.39409 c -0.4,0.2 -0.9,0.3 -1.4,0.3 l 4,5.3 -2.6,0 -4.7,-6.6 0,0 0,6.6 -2.1,0 0,-14.3 4.4,0 c 1.3,0 2.8,0.2 3.8,1.2 0.9,0.9 1.3,2.1 1.3,3.4 0,1.9 -0.9,3.5 -2.7,4.1 m -2.6,-6.8 -2.2,0 0,5.5 1.4,0 c 1.8,0 3.9,-0.5 3.9,-2.8 0.1,-1.8 -1.4,-2.7 -3.1,-2.7"
       id="path4165"
       inkscape:connector-curvature="0"
       style="fill:#ffffff" /><path
       d="m 501.00134,132.99409 c -0.9,0.8 -2.1,1.2 -3.3,1.2 -1.2,0 -2.4,-0.4 -3.3,-1.2 -1.1,-0.9 -1.4,-2.3 -1.4,-3.7 l 0,-9.6 2.1,0 0,9.6 c 0,1.7 0.9,3 2.7,3 1.8,0 2.7,-1.3 2.7,-3 l 0,-9.6 2.1,0 0,9.6 c -0.1,1.5 -0.5,2.8 -1.6,3.7"
       id="path4167"
       inkscape:connector-curvature="0"
       style="fill:#ffffff" /><path
       d="m 510.60134,134.29409 c -2.6,0 -4.4,-1.9 -4.4,-4.5 l 2.1,0 c 0,1.4 0.8,2.6 2.3,2.6 1.4,0 2.3,-1 2.3,-2.4 0,-1.5 -1.1,-1.9 -2.3,-2.3 -2.2,-0.8 -4,-1.5 -4,-4.3 0,-2.2 1.8,-3.9 4,-3.9 2.4,0 4.1,1.6 4.1,4 l -2.1,0 c 0,-1.2 -0.8,-2.1 -2,-2.1 -1,0 -1.9,0.9 -1.9,1.9 0,3 6.3,1.2 6.3,6.6 -0.1,2.6 -1.9,4.4 -4.4,4.4"
       id="path4169"
       inkscape:connector-curvature="0"
       style="fill:#ffffff" /><path
       d="m 522.40134,134.29409 c -2.6,0 -4.4,-1.9 -4.4,-4.5 l 2.1,0 c 0,1.4 0.8,2.6 2.3,2.6 1.4,0 2.3,-1 2.3,-2.4 0,-1.5 -1.1,-1.9 -2.3,-2.3 -2.2,-0.8 -4,-1.5 -4,-4.3 0,-2.2 1.8,-3.9 4,-3.9 2.4,0 4.1,1.6 4.1,4 l -2.1,0 c 0,-1.2 -0.8,-2.1 -2,-2.1 -1,0 -1.9,0.9 -1.9,1.9 0,3 6.3,1.2 6.3,6.6 0,2.6 -1.8,4.4 -4.4,4.4"
       id="path4171"
       inkscape:connector-curvature="0"
       style="fill:#ffffff" /><path
       id="polygon4173"
       d="m 325.8,225 0,2 -5.6,0 0,4.3 5.6,0 0,1.9 -7.7,0 0,-14.3 7.7,0 0,1.9 -5.6,0 0,4.2 z"
       transform="translate(212.60134,-99.20591)"
       inkscape:connector-curvature="0"
       style="fill:#ffffff" /><path
       id="polygon4175"
       d="m 330.1,233.2 0,-14.3 2.1,0 0,12.4 4.9,0 0,1.9 z"
       transform="translate(212.60134,-99.20591)"
       inkscape:connector-curvature="0"
       style="fill:#ffffff" /></g></svg>